<svg xmlns="http://www.w3.org/2000/svg" xmlns:xlink="http://www.w3.org/1999/xlink" width="375" height="812" viewBox="0 0 375 812">
  <defs>
    <clipPath id="clip-path">
      <rect id="Retângulo_4" data-name="Retângulo 4" width="145.101" height="80.432" fill="none"/>
    </clipPath>
    <clipPath id="clip-path-2">
      <rect id="Retângulo_5" data-name="Retângulo 5" width="343.241" height="305.142" fill="none"/>
    </clipPath>
  </defs>
  <rect id="background" width="375" height="812" fill="#fff"/>
  <g id="title" transform="translate(63 456)">
    <text id="Search_Rent_Easily" data-name="Search &amp; Rent Easily" transform="translate(124.5 68)" fill="#041637" font-size="24" font-family="SegoeUI, Segoe UI"><tspan x="-136.975" y="0">Inspiração que approxima</tspan></text>
    <text id="You_can_search_among" data-name="You can search among" transform="translate(-15 86)" fill="#b3b9c2" font-size="14" font-family="SegoeUI, Segoe UI"><tspan x="15.528" y="15">Lorem ipsum dolor sit amet, consectetur </tspan><tspan x="14.417" y="34">adipiscing elit. Etiam sodales est enim, id </tspan><tspan x="66.158" y="53">luctus dui dignissim nec</tspan></text>
  </g>
  <g id="Grupo_51" data-name="Grupo 51" transform="translate(115.45 56.997)">
    <g id="Grupo_50" data-name="Grupo 50" clip-path="url(#clip-path)">
      <path id="Caminho_1" data-name="Caminho 1" d="M12.2,295.875c-4.48,0-8.233,1.8-10.455,4.969V289.319a.283.283,0,0,0-.282-.283H.282a.283.283,0,0,0-.282.283V317.6a.283.283,0,0,0,.282.283H1.467a.283.283,0,0,0,.282-.283v-3.922c2.221,3.17,5.975,4.968,10.455,4.968,7.269,0,11.784-4.354,11.784-11.364,0-6.927-4.626-11.4-11.784-11.4m-.153,21.093a11.222,11.222,0,0,1-10.3-5.865v-7.689a11.222,11.222,0,0,1,10.3-5.864c6.355,0,10.149,3.637,10.149,9.728,0,6.068-3.794,9.69-10.149,9.69" transform="translate(0 -238.209)" fill="#d28369"/>
      <path id="Caminho_2" data-name="Caminho 2" d="M170.128,327.928c-7.646,0-12.4,4.369-12.4,11.4,0,7.01,4.764,11.364,12.434,11.364,5.109,0,8.493-1.155,11.315-3.861a.283.283,0,0,0,.022-.385l-.764-.918a.282.282,0,0,0-.2-.1.318.318,0,0,0-.212.079c-2.562,2.489-5.589,3.551-10.12,3.551-6.79,0-10.684-3.546-10.684-9.728v-.061h22.453c.156,0,.277-.074.277-.23a.653.653,0,0,0,.044-.243v-.01c-.239-6.8-4.786-10.859-12.166-10.859m-10.5,9.706c.663-5.134,4.471-8.07,10.5-8.07,5.975,0,9.609,2.862,10.268,8.07Z" transform="translate(-129.995 -270.262)" fill="#d28369"/>
      <path id="Caminho_3" data-name="Caminho 3" d="M328.888,289.036H327.7a.283.283,0,0,0-.282.283V317.6a.283.283,0,0,0,.282.283h1.185a.283.283,0,0,0,.282-.283V289.319a.283.283,0,0,0-.282-.283" transform="translate(-269.844 -238.209)" fill="#d28369"/>
      <path id="Caminho_4" data-name="Caminho 4" d="M365.06,289.036h-1.185a.283.283,0,0,0-.282.283V317.6a.283.283,0,0,0,.282.283h1.185a.283.283,0,0,0,.282-.283V289.319a.283.283,0,0,0-.282-.283" transform="translate(-299.655 -238.209)" fill="#d28369"/>
      <path id="Caminho_5" data-name="Caminho 5" d="M411.722,327.928c-7.646,0-12.4,4.369-12.4,11.4,0,7.01,4.764,11.364,12.433,11.364,5.109,0,8.493-1.155,11.315-3.861a.283.283,0,0,0,.022-.385l-.764-.918a.282.282,0,0,0-.2-.1.308.308,0,0,0-.212.079c-2.562,2.489-5.589,3.551-10.12,3.551-6.79,0-10.684-3.546-10.684-9.728v-.061h22.453c.156,0,.277-.075.277-.231a.66.66,0,0,0,.043-.242v-.01c-.239-6.8-4.786-10.859-12.166-10.859m-10.5,9.706c.663-5.134,4.471-8.07,10.5-8.07,5.974,0,9.609,2.862,10.268,8.07Z" transform="translate(-329.106 -270.262)" fill="#d28369"/>
      <path id="Caminho_6" data-name="Caminho 6" d="M577.968,351.88H559.282l18.388-18.2a.282.282,0,0,0,.084-.2v-.917a.283.283,0,0,0-.282-.283H557.333a.283.283,0,0,0-.282.283v1.108a.283.283,0,0,0,.282.283h17.655l-18.388,18.2a.282.282,0,0,0-.084.2v.917a.283.283,0,0,0,.282.283h21.169a.283.283,0,0,0,.282-.283v-1.108a.283.283,0,0,0-.282-.283" transform="translate(-458.653 -273.846)" fill="#d28369"/>
      <path id="Caminho_7" data-name="Caminho 7" d="M713.219,349.508a7.643,7.643,0,0,1-.957-3.95v-7.336c0-6.542-3.988-10.3-10.943-10.3a17.641,17.641,0,0,0-9.947,2.958.283.283,0,0,0-.071.386l.611.917a.283.283,0,0,0,.184.121.292.292,0,0,0,.215-.047,15.146,15.146,0,0,1,8.93-2.66c6.04,0,9.232,2.994,9.232,8.659v1.385c-1.76-2.552-5.481-4.152-9.843-4.152-8.88,0-11.249,4.789-11.249,7.619,0,5.208,5.831,7.581,11.249,7.581,4.37,0,8.107-1.617,9.868-4.194a7.119,7.119,0,0,0,.931,3.29.283.283,0,0,0,.244.141h1.3a.283.283,0,0,0,.246-.422m-2.707-5.576c-1.684,3.777-6.182,5.125-9.843,5.125-3.528,0-9.5-1.252-9.5-5.945,0-4.724,5.971-5.984,9.5-5.984,3.672,0,8.176,1.348,9.843,5.125Z" transform="translate(-568.155 -270.261)" fill="#d28369"/>
      <path id="Caminho_8" data-name="Caminho 8" d="M329.519,29.246c2.849-2.953,4.892-7.259,6.081-12.819a49.206,49.206,0,0,0,1.074-10.588,1.034,1.034,0,0,0-.794-.976c-8.875-2.1-15.816-1-20.631,3.291-3.734,3.321-6.149,8.644-6.985,15.391a44.622,44.622,0,0,0-.3,6.97c-3.443-2.3-14.85-11.464-8.383-28.129,2.533.544,9.437,2.472,9.645,7.334a1.138,1.138,0,0,0,.375.792,1.078,1.078,0,0,0,.79.278,1.121,1.121,0,0,0,1.069-1.166C311.129,1.859,299.544.083,299.05.011a1.119,1.119,0,0,0-1.192.675c-5.682,13.6-.258,22.905,4.532,27.931a14.48,14.48,0,0,0-6.069,0,1.169,1.169,0,1,0,.489,2.286,12.223,12.223,0,0,1,14.516,9.4,1.172,1.172,0,0,0,1.142.925,1.122,1.122,0,0,0,.245-.026,1.169,1.169,0,0,0,.9-1.387,14.658,14.658,0,0,0-.878-2.751c2.749,1.933,6.539,3.893,10.62,3.893a12.557,12.557,0,0,0,1.334-.071,15.119,15.119,0,0,0,11.9-8.5,1.03,1.03,0,0,0-.2-1.125c-1.772-1.852-4.564-2.163-6.873-2.013m-5.052,9.586c-6.6.709-12.929-5.234-14.335-6.654-.173-2.068-1.017-15.807,6.492-22.486,4.142-3.685,10.192-4.7,17.987-3-.05,3.611-.793,18.526-9.477,23.387a1.032,1.032,0,0,0,.812,1.885c.056-.018,5.6-1.7,8.407.255a13.2,13.2,0,0,1-9.886,6.613" transform="translate(-243.45 0)" fill="#95b8c4"/>
    </g>
  </g>
  <g id="Grupo_52" data-name="Grupo 52" transform="translate(15.879 171.43)">
    <g id="Grupo_52-2" data-name="Grupo 52" transform="translate(0 -0.001)" clip-path="url(#clip-path-2)">
      <path id="Caminho_9" data-name="Caminho 9" d="M135.447,303.065a17.883,17.883,0,0,0,3.575,1.421c3.673.982,9,0,12.8,0H352.249c27.3,0,50.572-26,59.87-51.675,3.768-10.4,5.293-21.474,6.361-32.487,1.852-19.11,2.329-38.837-3.791-57.035-8.117-24.138-26.8-43.015-34.563-67.094-7.1-22.019-7.815-47.042-22.218-66.131C343.375,10.8,317.941,3.017,293.861,1.469c-34.939-2.246-75.8-3.463-109.156,8.256-17.348,6.1-33.55,17.9-40.678,34.849-4.985,11.852-5.172,25.072-7.157,37.776C132.62,109.555,120.05,134.612,109.4,160c-12.293,29.3-22.007,61.6-14.109,93.409,5.256,21.164,20.864,39.677,40.159,49.653" transform="translate(-76.47 0.001)" fill="#95b8c4"/>
      <path id="Caminho_10" data-name="Caminho 10" d="M1357.609,770.21a.484.484,0,0,1-.093-.01.465.465,0,0,1-.359-.551c13.817-65.7,27.5-112.416,38.522-131.546.245-.425.421-.731.486-.885a.465.465,0,1,1,.858.361,11.093,11.093,0,0,1-.538.989c-10.976,19.047-24.62,65.667-38.417,131.273a.465.465,0,0,1-.458.37" transform="translate(-1122.787 -526.944)" fill="#e7f5f7"/>
      <path id="Caminho_11" data-name="Caminho 11" d="M1584.613,587.01c-1.316,2.154-8.487,6.511-9.1,6.135s-.013-8.745,1.3-10.9a4.569,4.569,0,1,1,7.8,4.764" transform="translate(-1303.243 -479.891)" fill="#e7f5f7"/>
      <path id="Caminho_12" data-name="Caminho 12" d="M1505.458,648.955c.949,2.4.093,10.943-.593,11.214s-7.152-5.375-8.1-7.776a4.675,4.675,0,0,1,8.694-3.438" transform="translate(-1238.023 -534.443)" fill="#e7f5f7"/>
      <path id="Caminho_13" data-name="Caminho 13" d="M1555.908,699.338c-2.553.384-10.683-2.374-10.792-3.1s6.848-5.758,9.4-6.143a4.675,4.675,0,0,1,1.392,9.245" transform="translate(-1278.296 -570.88)" fill="#e7f5f7"/>
      <path id="Caminho_14" data-name="Caminho 14" d="M1371.334,899.738c2.018,3.835,2.135,18.244,1.04,18.82s-12.908-7.676-14.926-11.51a7.846,7.846,0,1,1,13.886-7.31" transform="translate(-1122.288 -740.897)" fill="#e7f5f7"/>
      <path id="Caminho_15" data-name="Caminho 15" d="M1466.149,969.984c-4.191,1.1-18.256-2.028-18.571-3.224s10.385-10.848,14.576-11.951a7.846,7.846,0,0,1,4,15.176" transform="translate(-1197.596 -789.711)" fill="#e7f5f7"/>
      <path id="Caminho_16" data-name="Caminho 16" d="M1304.083,1001.979c3.442,4.034,7.462,21.2,6.311,22.186s-17.476-5.686-20.918-9.72a9.6,9.6,0,1,1,14.608-12.466" transform="translate(-1064.9 -826.165)" fill="#e7f5f7"/>
      <path id="Caminho_17" data-name="Caminho 17" d="M1438.875,1088.049c-5.24.815-21.967-4.768-22.2-6.263s14.007-11.9,19.247-12.712a9.6,9.6,0,0,1,2.953,18.975" transform="translate(-1172.034 -884.364)" fill="#e7f5f7"/>
      <path id="Caminho_18" data-name="Caminho 18" d="M1274.132,1126.371c3.442,4.034,7.462,21.2,6.311,22.186s-17.476-5.686-20.918-9.72a9.6,9.6,0,0,1,14.607-12.466" transform="translate(-1040.122 -929.075)" fill="#e7f5f7"/>
      <path id="Caminho_19" data-name="Caminho 19" d="M1408.924,1212.441c-5.24.816-21.967-4.767-22.2-6.263s14.007-11.9,19.247-12.712a9.6,9.6,0,1,1,2.953,18.975" transform="translate(-1147.255 -987.276)" fill="#e7f5f7"/>
      <path id="Caminho_20" data-name="Caminho 20" d="M1212.85,1296.949c4.719,2.418,14.976,16.763,14.286,18.11s-18.324,1.4-23.044-1.019a9.6,9.6,0,0,1,8.758-17.091" transform="translate(-991.84 -1072.109)" fill="#e7f5f7"/>
      <path id="Caminho_21" data-name="Caminho 21" d="M1380.556,1336.354c-5.1,1.464-22.391-1.984-22.808-3.439s12.41-13.555,17.507-15.019a9.6,9.6,0,1,1,5.3,18.457" transform="translate(-1123.276 -1090.004)" fill="#e7f5f7"/>
      <path id="Caminho_22" data-name="Caminho 22" d="M1471.984,728.624c.964,2.439.094,11.118-.6,11.394s-7.267-5.461-8.232-7.9a4.75,4.75,0,0,1,8.833-3.493" transform="translate(-1210.21 -600.315)" fill="#e7f5f7"/>
      <path id="Caminho_23" data-name="Caminho 23" d="M1521.361,780.9c-2.594.391-10.854-2.412-10.965-3.152s6.957-5.85,9.551-6.241a4.749,4.749,0,1,1,1.414,9.393" transform="translate(-1249.571 -638.236)" fill="#e7f5f7"/>
      <path id="Caminho_24" data-name="Caminho 24" d="M1415.78,799.9c1.65,3.341,1.429,15.732.475,16.2s-10.926-6.886-12.575-10.227a6.747,6.747,0,1,1,12.1-5.975" transform="translate(-1160.707 -658.66)" fill="#e7f5f7"/>
      <path id="Caminho_25" data-name="Caminho 25" d="M1494.59,871.012c-3.685.555-15.42-3.426-15.578-4.478s9.884-8.312,13.569-8.867a6.747,6.747,0,0,1,2.009,13.345" transform="translate(-1223.606 -709.497)" fill="#e7f5f7"/>
      <path id="Caminho_26" data-name="Caminho 26" d="M354.731,1016.771s41.344-72.858-94.354-122.352c0,0,4.671,148.7,94.354,122.352" transform="translate(-215.414 -739.966)" fill="#c3d8dd"/>
      <path id="Caminho_27" data-name="Caminho 27" d="M260.377,894.419l94.354,122.352s-81.557,38.236-94.354-122.352" transform="translate(-215.414 -739.966)" fill="#a0ccd8"/>
      <path id="Caminho_28" data-name="Caminho 28" d="M347.53,1144.563a.563.563,0,0,0,.055.032l31.941,15.839a.489.489,0,1,0,.435-.876l-31.941-15.839a.489.489,0,0,0-.489.844" transform="translate(-287.337 -946.173)" fill="#6b8389"/>
      <path id="Caminho_29" data-name="Caminho 29" d="M489.995,1429a.474.474,0,0,0,.1.051l44.159,16.615a.488.488,0,1,0,.344-.915l-44.159-16.616a.489.489,0,0,0-.443.864" transform="translate(-405.2 -1181.492)" fill="#91b5f8"/>
      <path id="Caminho_30" data-name="Caminho 30" d="M1164.86,1212.725s-22.115-83.608,118.363-98.89c0,0-39.413,148.066-118.363,98.89" transform="translate(-962.656 -921.492)" fill="#518593"/>
      <path id="Caminho_31" data-name="Caminho 31" d="M1284.5,1112.744l-119.61,88.194c-.559-23.053,10.311-76.3,119.61-88.194" transform="translate(-963.715 -920.589)" fill="#c3d8dd"/>
      <path id="Caminho_32" data-name="Caminho 32" d="M1192.3,1195.684a.4.4,0,0,1-.239-.727l114.56-84.469a.4.4,0,0,1,.478.648l-114.56,84.469a.4.4,0,0,1-.239.079" transform="translate(-986.077 -918.657)" fill="#060633"/>
      <path id="Caminho_33" data-name="Caminho 33" d="M1547.953,1371.823a.311.311,0,0,1-.055,0l-38.571-5.248a.4.4,0,0,1,.109-.8l38.571,5.249a.4.4,0,0,1-.054.8" transform="translate(-1248.4 -1129.92)" fill="#060633"/>
      <path id="Caminho_34" data-name="Caminho 34" d="M1367.272,1298.176a.394.394,0,0,1-.17-.038.4.4,0,0,1-.2-.535l16.852-36.148a.4.4,0,0,1,.73.34l-16.852,36.148a.4.4,0,0,1-.365.233" transform="translate(-1130.83 -1043.428)" fill="#060633"/>
      <path id="Caminho_35" data-name="Caminho 35" d="M144.71,1361.427s-61.636,56.93-140.837-64.136c0,0,146.091-29.337,140.837,64.136" transform="translate(-3.204 -1069.658)" fill="#518593"/>
      <path id="Caminho_36" data-name="Caminho 36" d="M2.334,1317.513l132.209,69.981c-19.6,10.658-70.585,24.216-132.209-69.981" transform="translate(-1.931 -1089.998)" fill="#c3d8dd"/>
      <path id="Caminho_37" data-name="Caminho 37" d="M127.029,1383.015a.407.407,0,0,1-.189-.047L.214,1315.942a.4.4,0,0,1,.377-.713l126.627,67.026a.4.4,0,0,1-.189.759" transform="translate(0 -1088.07)" fill="#060633"/>
      <path id="Caminho_38" data-name="Caminho 38" d="M318,1339.437a.4.4,0,0,1-.378-.265l-13.61-37.4a.4.4,0,1,1,.757-.275l13.61,37.4a.4.4,0,0,1-.378.541" transform="translate(-251.494 -1076.528)" fill="#060633"/>
      <path id="Caminho_39" data-name="Caminho 39" d="M314.063,1602.339a.4.4,0,0,1-.006-.806l39.064-.584h.006a.4.4,0,0,1,.006.806l-39.065.584Z" transform="translate(-259.495 -1324.488)" fill="#060633"/>
      <path id="Caminho_40" data-name="Caminho 40" d="M559.43,252.276a28.214,28.214,0,0,0-1.925,2.471c-4.888,7.053-2.909,17.754-10.348,23.13-5.321,3.846-12.611,2.368-19.158,2.863a22.69,22.69,0,0,0-13.3,5.178,15.274,15.274,0,0,0-5.347,12.9c.561,4.721,3.662,8.77,4.758,13.4a16.4,16.4,0,0,1-2.126,12.474c-2.5,3.9-6.524,6.532-9.656,9.945s-5.4,8.463-3.366,12.623c2.185,4.459,8.2,5.757,10.892,9.931,2.895,4.489.955,10.342-.3,15.534s-.927,12.052,3.993,14.13c2.183.922,4.684.561,6.985-.006,1.519-.375,3.126-.831,4.616-.353a6.632,6.632,0,0,1,2.357,1.53c4.162,3.8,7.347,9.417,12.875,10.5,2.856.562,5.784-.255,8.574-1.085,5.832-1.733,11.94-3.741,15.989-8.283,7.024-7.879,5.461-20.464,11.245-29.294,4.608-7.034,13.062-10.461,21.218-12.5s16.726-3.185,24.032-7.347a32.426,32.426,0,0,0,10.93-10.218c1.827-2.758,3.261-5.974,2.976-9.27-.616-7.121-8.562-11.342-11.013-18.055-1.986-5.439-.684-11.187-1.437-16.784-.738-5.486-4.076-10.486-6.978-15.1-5.871-9.329-15.141-22.9-25.807-26.934-10.575-4-23.414.294-30.676,8.622" transform="translate(-412.155 -200.325)" fill="#0b0755"/>
      <path id="Caminho_41" data-name="Caminho 41" d="M814.859,1278.308s12,14.538,17.415,31.553,1.92,52.169,1.92,52.169H793.977s-.387-32.484-1.934-32.87-10.441,32.87-10.441,32.87H739.064s-10.634-52.979,19.432-83.722l28.133,1.74Z" transform="translate(-609.928 -1057.563)" fill="#d28369"/>
      <path id="Caminho_42" data-name="Caminho 42" d="M916.238,1223.524v7.541s-14.308,13.921-56.363,0l-.1-7.541,36.931-2.32Z" transform="translate(-711.308 -1010.32)" fill="#060633"/>
      <path id="Caminho_43" data-name="Caminho 43" d="M821.175,684.271s14.9-.553,22.466,4.668c5.41,3.734,17.353,24.8,17.353,24.8l-13.712,11.655s3.271,12.708-9.5,19.087l-2.313,30.744s-23.976,13.922-56.459,0c0,0-6.187-57.619-11.988-52.592s-7.328-35.639.483-39.347c18.33-8.7,33.15-.33,33.15-.33Z" transform="translate(-630.542 -562.018)" fill="#fff"/>
      <path id="Caminho_44" data-name="Caminho 44" d="M1128.425,429.622s1.55-3.261,3.282-2.271c4.416,2.525.7,7.242-1.827,8.5Z" transform="translate(-933.562 -353.399)" fill="#ea6868"/>
      <path id="Caminho_45" data-name="Caminho 45" d="M860.34,250.062a24.539,24.539,0,0,0-15.693,37.068c4.556,7.982,8.3,14.4,12.449,18.876A24.422,24.422,0,0,1,863.77,322.6v3.835c9.806,9.515,20.735,2.439,20.735,2.439l-2.432-17.059c15.029-4,8.97-31.927,7.781-40.267l-.023.008c-.033-.314-.066-.629-.11-.945a24.543,24.543,0,0,0-29.38-20.546" transform="translate(-695.674 -206.438)" fill="#fb9391"/>
      <path id="Caminho_46" data-name="Caminho 46" d="M841.777,269.159c-3.552,5.658-7.389,11.257-9.756,17.485-.263.684-2.082,5.816-1.282,6.262-4.369-2.434-7.53-6.545-10.294-10.713-4.791-7.224-5.043-16.686-1.557-24.5,3.446-7.726,10.4-12.477,18.536-14.32,8.725-1.977,18.777-.388,25.224,6.211,6.051,6.193,7.528,14.905,9.277,23.024-1.964-9.113-15.323-14.217-23.2-16.411.229.064-4.385,8.741-4.635,9.169-.743,1.272-1.519,2.534-2.309,3.793" transform="translate(-675.524 -200.69)" fill="#0b0755"/>
      <path id="Caminho_47" data-name="Caminho 47" d="M866.887,492.192a3.644,3.644,0,0,0-2.136-1.444c-1.774-.437-4.838-.754-6.582,1.57-2.559,3.41,4.572,10.465,9.945,5.687,0,0,1.453-1.937-1.228-5.812" transform="translate(-709.532 -405.747)" fill="#fb9391"/>
      <path id="Caminho_48" data-name="Caminho 48" d="M941.346,435.212a.891.891,0,0,1-.9-1.41,10.692,10.692,0,0,1,6.182-3.581.891.891,0,0,1,1.036.717.913.913,0,0,1-.717,1.035,8.9,8.9,0,0,0-5.087,2.912.887.887,0,0,1-.51.327" transform="translate(-777.889 -355.916)" fill="#0b0755"/>
      <path id="Caminho_49" data-name="Caminho 49" d="M1065.389,400.309a.891.891,0,0,1,0-1.675,10.578,10.578,0,0,1,7.137.309.89.89,0,0,1-.674,1.648,8.866,8.866,0,0,0-5.854-.284.887.887,0,0,1-.606,0" transform="translate(-880.924 -329.404)" fill="#0b0755"/>
      <path id="Caminho_50" data-name="Caminho 50" d="M1043.03,459.166a3.813,3.813,0,0,0,2.939-3.836.752.752,0,0,0-.242-.5c-2.641-2.422-2.981-6.472-2.984-6.513a.75.75,0,0,0-1.5.112,12.59,12.59,0,0,0,3.215,7.267c-.063.606-.479,2-2.877,2.223a.75.75,0,0,0,.138,1.494,6.654,6.654,0,0,0,1.306-.246" transform="translate(-861.156 -370.326)" fill="#ea6868"/>
      <path id="Caminho_51" data-name="Caminho 51" d="M1035.636,523.632s-2.2-.967-3.261-.4a3.4,3.4,0,0,0-1.387,2.078,2.633,2.633,0,0,0-2.37-.933,32.824,32.824,0,0,0-5.029,2.209s4.891,5.091,8.794,3.144a5.716,5.716,0,0,0,3.239-5.884Z" transform="translate(-846.829 -432.729)" fill="#ea6868"/>
      <path id="Caminho_52" data-name="Caminho 52" d="M1025.356,526.728c-4.519,2.058-9.9-.415-9.972-.449a.321.321,0,0,1,.273-.581c.355.167,8.752,4.014,12.9-2.7a.321.321,0,0,1,.546.337,8.517,8.517,0,0,1-3.745,3.389" transform="translate(-839.89 -432.56)" fill="#240d39"/>
      <path id="Caminho_53" data-name="Caminho 53" d="M898.683,976.794c-10.876,0-15.41-10.873-15.454-10.983a.4.4,0,0,1,.746-.3c.043.105,4.382,10.48,14.708,10.48,10.344,0,14.357-7.537,14.4-7.612a.4.4,0,0,1,.716.368c-.041.08-4.26,8.049-15.112,8.049" transform="translate(-730.684 -798.57)" fill="#7c9af2"/>
      <path id="Caminho_54" data-name="Caminho 54" d="M1221.155,882.891a.4.4,0,0,1-.4-.355,23.076,23.076,0,0,0-6.564-12.623.4.4,0,0,1,.552-.587,23.453,23.453,0,0,1,6.811,13.115.4.4,0,0,1-.352.448.362.362,0,0,1-.049,0" transform="translate(-1004.413 -719.115)" fill="#7c9af2"/>
      <path id="Caminho_55" data-name="Caminho 55" d="M972.148,498.739c.195,1.306-1.253,2.6-3.233,2.9s-3.744-.524-3.938-1.829,1.253-2.6,3.233-2.9,3.744.524,3.938,1.829" transform="translate(-798.325 -411.051)" fill="#ef7d7d"/>
      <path id="Caminho_56" data-name="Caminho 56" d="M1089.088,470.424c.195,1.306-1.253,2.6-3.233,2.9s-3.743-.524-3.938-1.829,1.253-2.6,3.233-2.9,3.744.523,3.938,1.829" transform="translate(-895.071 -387.625)" fill="#ef7d7d"/>
      <path id="Caminho_57" data-name="Caminho 57" d="M1037.812,1264.246a7.094,7.094,0,1,1,7.093-7.094,7.1,7.1,0,0,1-7.093,7.094m0-10.966a3.872,3.872,0,1,0,3.871,3.871,3.876,3.876,0,0,0-3.871-3.871" transform="translate(-852.728 -1034.191)" fill="#bdd1f9"/>
      <path id="Caminho_58" data-name="Caminho 58" d="M1071.068,439.752a5.8,5.8,0,0,1-2.939-.983.4.4,0,0,1,.418-.689c1.362.829,2.509,1.066,3.4.7a3.175,3.175,0,0,0,1.611-1.974.4.4,0,0,1,.78.2,3.943,3.943,0,0,1-2.082,2.518,3.114,3.114,0,0,1-1.19.227" transform="translate(-883.518 -361.126)" fill="#060633"/>
      <path id="Caminho_59" data-name="Caminho 59" d="M964.808,467.406a5.8,5.8,0,0,1-2.939-.983.4.4,0,0,1,.418-.689c1.362.829,2.508,1.063,3.4.7a3.174,3.174,0,0,0,1.61-1.974.4.4,0,0,1,.781.2A3.94,3.94,0,0,1,966,467.178a3.114,3.114,0,0,1-1.19.227" transform="translate(-795.608 -384.005)" fill="#060633"/>
      <path id="Caminho_60" data-name="Caminho 60" d="M1003.264,900.577s4.483,48.971-15.321,49.826-47.685-41.97-47.685-41.97l10.9-3.916,33.516,23.055s12.471-4.205,10.2-19.139Z" transform="translate(-777.889 -745.06)" fill="#e58383"/>
      <path id="Caminho_61" data-name="Caminho 61" d="M746.838,848.416s7.329,36.163,23.543,35.992,38.972-19.115,38.972-19.115l9.065,8.029s-33.89,36.733-53.562,32.756c-29.128-5.89-36.947-51.885-36.947-51.885Z" transform="translate(-602.21 -701.907)" fill="#fb9391"/>
      <path id="Caminho_62" data-name="Caminho 62" d="M733.27,702.229c-10.909,6.238-14.72,22.48-11.268,40.655l24.334-5.45-3.287-21.472Z" transform="translate(-596.303 -580.964)" fill="#fff"/>
      <path id="Caminho_63" data-name="Caminho 63" d="M1192.5,853.6s2.65-10.622,3.8-13.969-.218-7.445,1.834-7.47,2.562,6.767,2.562,6.767,5.187-5,6.547-6.774,4.6-4.338,5.979-3.444-5.754,8.977-5.754,8.977,6.674-6.215,8.122-5.662-5.882,9.71-5.882,9.71,6.795-6.978,7.805-7.06,1.156,1.208-.65,4.262a33.753,33.753,0,0,1-4.438,5.708s5.142-4.545,5.949-4.875,2.16-.2-.994,4.046-11.584,12.377-17.373,14.718Z" transform="translate(-986.57 -685.452)" fill="#fb9391"/>
      <path id="Caminho_64" data-name="Caminho 64" d="M875.122,815.661s-3.012-10.525-4.278-13.831-.037-7.449-2.088-7.4-2.33,6.851-2.33,6.851-5.354-4.816-6.775-6.547-4.747-4.177-6.094-3.237,6.058,8.775,6.058,8.775-6.883-5.984-8.311-5.381,6.211,9.5,6.211,9.5-7.03-6.741-8.042-6.789-1.113,1.247.8,4.237a33.752,33.752,0,0,0,4.63,5.554s-5.294-4.367-6.112-4.669-2.166-.122,1.131,4.01,12,11.974,17.867,14.115Z" transform="translate(-701.404 -654.643)" fill="#e58383"/>
      <path id="Caminho_65" data-name="Caminho 65" d="M1254.4,92.625c-5.68-16.8-24.833-5.232-24.833-5.232s-7.923-20.924-22.764-11.218,10.4,46.987,10.4,46.987,42.875-13.737,37.2-30.536" transform="translate(-994.542 -60.895)" fill="#fa7267"/>
      <path id="Caminho_66" data-name="Caminho 66" d="M1412.921,506.108c-1.009-6.074-8.218-3.18-8.218-3.18s-1.547-7.613-7.175-5.116.94,16.683.94,16.683,15.46-2.313,14.452-8.388" transform="translate(-1154.31 -411.431)" fill="#fa7267"/>
      <path id="Caminho_67" data-name="Caminho 67" d="M494.254,218.048c-11.158-4.836-14.081,10.227-14.081,10.227S465.885,222.683,464,234.7s28.686,16.315,28.686,16.315,12.728-28.128,1.57-32.964" transform="translate(-383.803 -179.602)" fill="#fa7267"/>
    </g>
  </g>
</svg>
