<svg xmlns="http://www.w3.org/2000/svg" width="32.081" height="24.952" viewBox="0 0 32.081 24.952">
  <path id="cc-mastercard-brands" d="M26.9,54.014a.624.624,0,1,1-.624-.652A.623.623,0,0,1,26.9,54.014Zm-17.31-.652a.653.653,0,1,0,.607.652A.616.616,0,0,0,9.585,53.362Zm6.544-.017a.516.516,0,0,0-.529.485h1.064A.512.512,0,0,0,16.129,53.346Zm6,.017a.652.652,0,1,0,.624.652A.616.616,0,0,0,22.133,53.362Zm5.9,1.454c0,.017.017.028.017.061,0,.017-.017.028-.017.061a.2.2,0,0,0-.028.045.072.072,0,0,1-.061.028c-.017.017-.028.017-.061.017a.11.11,0,0,1-.061-.017c-.017,0-.028-.017-.045-.028s-.028-.028-.028-.045a.1.1,0,0,1-.017-.061c0-.028,0-.045.017-.061a.1.1,0,0,1,.028-.061.2.2,0,0,1,.045-.028.1.1,0,0,1,.061-.017c.028,0,.045,0,.061.017s.045.017.061.028S28.015,54.788,28.032,54.816Zm-.123.078c.028,0,.028-.017.045-.017a.068.068,0,0,0,0-.089c-.017,0-.028-.017-.061-.017H27.8v.195h.045v-.078h.017l.061.078h.045l-.061-.072Zm4.172-19.221v19.6a2.674,2.674,0,0,1-2.673,2.673H2.673A2.674,2.674,0,0,1,0,55.278v-19.6A2.674,2.674,0,0,1,2.673,33H29.407A2.674,2.674,0,0,1,32.081,35.673ZM3.565,43.448a7.71,7.71,0,0,0,11.975,6.427,8.306,8.306,0,0,1,0-12.838A7.71,7.71,0,0,0,3.565,43.448Zm12.476,6.06a7.711,7.711,0,0,0,0-12.114A7.711,7.711,0,0,0,16.04,49.508Zm-7.925,4.25a.781.781,0,0,0-.819-.819.8.8,0,0,0-.713.362.738.738,0,0,0-.679-.362.707.707,0,0,0-.59.3v-.245H4.857v2.044h.457c0-1.053-.139-1.682.5-1.682.568,0,.457.568.457,1.682h.44c0-1.019-.139-1.682.5-1.682.568,0,.457.557.457,1.682h.457V53.758Zm2.5-.763h-.44v.245a.8.8,0,0,0-.652-.3,1.077,1.077,0,0,0,0,2.15.772.772,0,0,0,.652-.3v.256h.44Zm2.256,1.426c0-.835-1.275-.457-1.275-.847,0-.317.663-.267,1.03-.061l.184-.362c-.524-.34-1.682-.334-1.682.457s1.275.462,1.275.835c0,.351-.752.323-1.153.045l-.195.351c.624.423,1.816.334,1.816-.418Zm1.972.518-.123-.379c-.212.117-.679.245-.679-.228v-.925h.73v-.412h-.73v-.624h-.457v.624h-.423V53.4h.423v.93c0,.98.964.8,1.259.607Zm.741-.746h1.532c0-.9-.412-1.259-.969-1.259a1,1,0,0,0-1.014,1.075,1.111,1.111,0,0,0,1.883.791l-.212-.334C16.369,54.822,15.712,54.788,15.584,54.192Zm3.292-1.2a.654.654,0,0,0-.847.245v-.245h-.457v2.044h.457V53.886a.465.465,0,0,1,.713-.468l.134-.423Zm.59,1.019c0-.635.646-.841,1.153-.468l.212-.362a1.1,1.1,0,1,0,0,1.671l-.212-.362C20.106,54.855,19.466,54.638,19.466,54.014Zm3.715-1.019h-.457v.245a1.013,1.013,0,1,0,0,1.548v.256h.457Zm1.877,0a.669.669,0,0,0-.847.245v-.245h-.44v2.044h.44V53.886a.467.467,0,0,1,.713-.468l.134-.423Zm2.245-.83h-.44V53.24a1.013,1.013,0,1,0,0,1.548v.256h.44Zm.423-4.183v.256h.045v-.256h.106v-.045h-.256v.045h.106Zm.368,6.9a.17.17,0,0,0-.017-.089c-.017-.017-.028-.045-.045-.061s-.045-.028-.061-.045c-.028,0-.061-.017-.089-.017a.592.592,0,0,1-.078.017.291.291,0,0,0-.061.045.087.087,0,0,0-.045.061.17.17,0,0,0-.017.089.162.162,0,0,0,.017.078.087.087,0,0,0,.045.061.193.193,0,0,0,.061.045.151.151,0,0,0,.078.017.17.17,0,0,0,.089-.017c.017-.017.045-.028.061-.045s.028-.045.045-.061A.162.162,0,0,0,28.093,54.877Zm.178-6.945h-.078l-.089.195-.089-.195h-.078v.3h.045V48l.089.195h.061L28.21,48v.228h.061Zm.245-4.483a7.71,7.71,0,0,0-11.975-6.416,8.306,8.306,0,0,1,0,12.838,7.71,7.71,0,0,0,11.975-6.422Z" transform="translate(0 -33)" fill="#95b8c4"/>
</svg>
