<svg id="Grupo_51" data-name="Grupo 51" xmlns="http://www.w3.org/2000/svg" xmlns:xlink="http://www.w3.org/1999/xlink" width="145.101" height="80.432" viewBox="0 0 145.101 80.432">
  <defs>
    <clipPath id="clip-path">
      <rect id="Retângulo_4" data-name="Retângulo 4" width="145.101" height="80.432" fill="none"/>
    </clipPath>
  </defs>
  <g id="Grupo_50" data-name="Grupo 50" clip-path="url(#clip-path)">
    <path id="Caminho_1" data-name="Caminho 1" d="M12.2,295.875c-4.48,0-8.233,1.8-10.455,4.969V289.319a.283.283,0,0,0-.282-.283H.282a.283.283,0,0,0-.282.283V317.6a.283.283,0,0,0,.282.283H1.467a.283.283,0,0,0,.282-.283v-3.922c2.221,3.17,5.975,4.968,10.455,4.968,7.269,0,11.784-4.354,11.784-11.364,0-6.927-4.626-11.4-11.784-11.4m-.153,21.093a11.222,11.222,0,0,1-10.3-5.865v-7.689a11.222,11.222,0,0,1,10.3-5.864c6.355,0,10.149,3.637,10.149,9.728,0,6.068-3.794,9.69-10.149,9.69" transform="translate(0 -238.209)" fill="#fff"/>
    <path id="Caminho_2" data-name="Caminho 2" d="M170.128,327.928c-7.646,0-12.4,4.369-12.4,11.4,0,7.01,4.764,11.364,12.434,11.364,5.109,0,8.493-1.155,11.315-3.861a.283.283,0,0,0,.022-.385l-.764-.918a.282.282,0,0,0-.2-.1.318.318,0,0,0-.212.079c-2.562,2.489-5.589,3.551-10.12,3.551-6.79,0-10.684-3.546-10.684-9.728v-.061h22.453c.156,0,.277-.074.277-.23a.653.653,0,0,0,.044-.243v-.01c-.239-6.8-4.786-10.859-12.166-10.859m-10.5,9.706c.663-5.134,4.471-8.07,10.5-8.07,5.975,0,9.609,2.862,10.268,8.07Z" transform="translate(-129.995 -270.262)" fill="#fff"/>
    <path id="Caminho_3" data-name="Caminho 3" d="M328.888,289.036H327.7a.283.283,0,0,0-.282.283V317.6a.283.283,0,0,0,.282.283h1.185a.283.283,0,0,0,.282-.283V289.319a.283.283,0,0,0-.282-.283" transform="translate(-269.844 -238.209)" fill="#fff"/>
    <path id="Caminho_4" data-name="Caminho 4" d="M365.06,289.036h-1.185a.283.283,0,0,0-.282.283V317.6a.283.283,0,0,0,.282.283h1.185a.283.283,0,0,0,.282-.283V289.319a.283.283,0,0,0-.282-.283" transform="translate(-299.655 -238.209)" fill="#fff"/>
    <path id="Caminho_5" data-name="Caminho 5" d="M411.722,327.928c-7.646,0-12.4,4.369-12.4,11.4,0,7.01,4.764,11.364,12.433,11.364,5.109,0,8.493-1.155,11.315-3.861a.283.283,0,0,0,.022-.385l-.764-.918a.282.282,0,0,0-.2-.1.308.308,0,0,0-.212.079c-2.562,2.489-5.589,3.551-10.12,3.551-6.79,0-10.684-3.546-10.684-9.728v-.061h22.453c.156,0,.277-.075.277-.231a.66.66,0,0,0,.043-.242v-.01c-.239-6.8-4.786-10.859-12.166-10.859m-10.5,9.706c.663-5.134,4.471-8.07,10.5-8.07,5.974,0,9.609,2.862,10.268,8.07Z" transform="translate(-329.106 -270.262)" fill="#fff"/>
    <path id="Caminho_6" data-name="Caminho 6" d="M577.968,351.88H559.282l18.388-18.2a.282.282,0,0,0,.084-.2v-.917a.283.283,0,0,0-.282-.283H557.333a.283.283,0,0,0-.282.283v1.108a.283.283,0,0,0,.282.283h17.655l-18.388,18.2a.282.282,0,0,0-.084.2v.917a.283.283,0,0,0,.282.283h21.169a.283.283,0,0,0,.282-.283v-1.108a.283.283,0,0,0-.282-.283" transform="translate(-458.653 -273.846)" fill="#fff"/>
    <path id="Caminho_7" data-name="Caminho 7" d="M713.219,349.508a7.643,7.643,0,0,1-.957-3.95v-7.336c0-6.542-3.988-10.3-10.943-10.3a17.641,17.641,0,0,0-9.947,2.958.283.283,0,0,0-.071.386l.611.917a.283.283,0,0,0,.184.121.292.292,0,0,0,.215-.047,15.146,15.146,0,0,1,8.93-2.66c6.04,0,9.232,2.994,9.232,8.659v1.385c-1.76-2.552-5.481-4.152-9.843-4.152-8.88,0-11.249,4.789-11.249,7.619,0,5.208,5.831,7.581,11.249,7.581,4.37,0,8.107-1.617,9.868-4.194a7.119,7.119,0,0,0,.931,3.29.283.283,0,0,0,.244.141h1.3a.283.283,0,0,0,.246-.422m-2.707-5.576c-1.684,3.777-6.182,5.125-9.843,5.125-3.528,0-9.5-1.252-9.5-5.945,0-4.724,5.971-5.984,9.5-5.984,3.672,0,8.176,1.348,9.843,5.125Z" transform="translate(-568.155 -270.261)" fill="#fff"/>
    <path id="Caminho_8" data-name="Caminho 8" d="M329.519,29.246c2.849-2.953,4.892-7.259,6.081-12.819a49.206,49.206,0,0,0,1.074-10.588,1.034,1.034,0,0,0-.794-.976c-8.875-2.1-15.816-1-20.631,3.291-3.734,3.321-6.149,8.644-6.985,15.391a44.622,44.622,0,0,0-.3,6.97c-3.443-2.3-14.85-11.464-8.383-28.129,2.533.544,9.437,2.472,9.645,7.334a1.138,1.138,0,0,0,.375.792,1.078,1.078,0,0,0,.79.278,1.121,1.121,0,0,0,1.069-1.166C311.129,1.859,299.544.083,299.05.011a1.119,1.119,0,0,0-1.192.675c-5.682,13.6-.258,22.905,4.532,27.931a14.48,14.48,0,0,0-6.069,0,1.169,1.169,0,1,0,.489,2.286,12.223,12.223,0,0,1,14.516,9.4,1.172,1.172,0,0,0,1.142.925,1.122,1.122,0,0,0,.245-.026,1.169,1.169,0,0,0,.9-1.387,14.658,14.658,0,0,0-.878-2.751c2.749,1.933,6.539,3.893,10.62,3.893a12.557,12.557,0,0,0,1.334-.071,15.119,15.119,0,0,0,11.9-8.5,1.03,1.03,0,0,0-.2-1.125c-1.772-1.852-4.564-2.163-6.873-2.013m-5.052,9.586c-6.6.709-12.929-5.234-14.335-6.654-.173-2.068-1.017-15.807,6.492-22.486,4.142-3.685,10.192-4.7,17.987-3-.05,3.611-.793,18.526-9.477,23.387a1.032,1.032,0,0,0,.812,1.885c.056-.018,5.6-1.7,8.407.255a13.2,13.2,0,0,1-9.886,6.613" transform="translate(-243.45 0)" fill="#95b8c4"/>
  </g>
</svg>
