<svg id="Home" xmlns="http://www.w3.org/2000/svg" width="24" height="24" viewBox="0 0 24 24">
  <path id="Shape_Copy_2" data-name="Shape Copy 2" d="M0,0H24V24H0Z" fill="none"/>
  <path id="Home-2" data-name="Home" d="M3.921,19.84A3.93,3.93,0,0,1,0,15.917V7.952A3.025,3.025,0,0,1,1.174,5.6L1.9,5.065a.783.783,0,0,1,.9,1.244l-.7.522a1.469,1.469,0,0,0-.531,1.121v7.957a2.365,2.365,0,0,0,2.356,2.347h4v.018a.783.783,0,0,1,0,1.565Zm9.2-.009a1.9,1.9,0,0,1-1.9-1.9v-3.6a.5.5,0,0,0-.5-.5H8.1a.5.5,0,0,0-.5.513v1.373a.783.783,0,1,1-1.565,0V14.344a2.08,2.08,0,0,1,2.078-2.079h2.609a2.079,2.079,0,0,1,2.07,2.079v3.591a.33.33,0,0,0,.33.33H14.9a2.348,2.348,0,0,0,2.348-2.348V7.952a1.471,1.471,0,0,0-.556-1.13L10.687,2.03a2.052,2.052,0,0,0-2.608,0L6.148,3.474a.8.8,0,1,1-.931-1.3L7.122.8a3.609,3.609,0,0,1,4.522,0l6.009,4.792a3.052,3.052,0,0,1,1.138,2.348l-.008,7.974a3.922,3.922,0,0,1-3.922,3.921Z" transform="translate(3 2)"/>
</svg>
