<svg id="icons_Search" data-name="icons/Search" xmlns="http://www.w3.org/2000/svg" width="24" height="24" viewBox="0 0 24 24">
  <g id="Search">
    <path id="Search-2" data-name="Search" d="M18.768,17.676,15.5,14.484h0l-.077-.116a.769.769,0,0,0-1.08,0h0a7.707,7.707,0,0,1-9.993.323A7.3,7.3,0,0,1,2.732,5.045a7.672,7.672,0,0,1,9.573-2.82,7.354,7.354,0,0,1,4.1,8.916.74.74,0,0,0,.173.733.78.78,0,0,0,.736.22.763.763,0,0,0,.563-.513h0A8.867,8.867,0,0,0,13.125.894,9.266,9.266,0,0,0,1.6,3.881,8.793,8.793,0,0,0,2.9,15.466a9.3,9.3,0,0,0,11.908.49L17.7,18.782a.778.778,0,0,0,1.08,0,.745.745,0,0,0,0-1.064h0Z" transform="translate(2 3)"/>
    <path id="Shape_Copy_2" data-name="Shape Copy 2" d="M0,0H24V24H0Z" fill="none"/>
  </g>
</svg>
